<svg version="1.1" id="Layer_1" xmlns="http://www.w3.org/2000/svg" x="0px" y="0px" width="512px" height="512px" viewBox="0 0 512 512" enable-background="new 0 0 512 512" xml:space="preserve"><path id="barras" fill="#5E6D84" d="M413.868,194.912h-0.137H262.068v-60.303h-12.076v60.303H98.157H98.02 c-2.653,0-4.803,2.125-4.859,4.766v4.047v3.264v16.817h12.075v-16.817h144.757v210.339h12.076v-210.34h144.55v21.024h12.075v-21.024 v-7.662C418.459,196.854,416.403,194.912,413.868,194.912L413.868,194.912z"/><g id="GCS"><path fill="#FBBC04" d="M486.538,291.073H340.163c-5.031,0-9.146-4.123-9.146-9.163v-54.982c0-5.04,4.114-9.162,9.146-9.162 h146.375c5.03,0,9.149,4.122,9.149,9.162v54.982C495.688,286.95,491.569,291.073,486.538,291.073z M349.313,272.746h128.078 v-36.653H349.313V272.746z"/><path fill="#34A853" d="M486.538,382.436H340.163c-5.031,0-9.146-4.123-9.146-9.164v-54.705c0-5.041,4.114-9.166,9.146-9.166 h146.375c5.03,0,9.149,4.125,9.149,9.166v54.705C495.688,378.312,491.569,382.436,486.538,382.436z M349.313,364.105h128.078 v-36.379H349.313V364.105z"/><path fill="#34A853" d="M385.905,375.745c-5.029,0-9.146,2.841-9.146-2.199V322.87c0-5.04,4.116-9.163,9.146-9.163 c5.032,0,9.149,4.123,9.149,9.163v50.676C395.054,378.586,390.937,375.745,385.905,375.745z"/><path fill="#FBBC04" d="M385.905,288.323c-5.029,0-9.146-4.123-9.146-9.162v-50.949c0-5.04,4.116-9.164,9.146-9.164 c5.032,0,9.149,4.124,9.149,9.164v50.949C395.054,284.2,390.937,288.323,385.905,288.323z"/><path fill="#EA4335" d="M486.538,291.073h-9.146v-54.98H331.017v-9.165c0-5.04,4.114-9.162,9.146-9.162h146.375 c5.03,0,9.149,4.122,9.149,9.162v54.982C495.688,286.95,491.569,291.073,486.538,291.073L486.538,291.073z"/><path fill="#4285F4" d="M486.538,382.436h-9.146v-54.707H331.017v-9.162c0-5.041,4.114-9.166,9.146-9.166h146.375 c5.03,0,9.149,4.125,9.149,9.166v54.705C495.688,378.312,491.569,382.436,486.538,382.436L486.538,382.436z"/></g><g id="S3"><path fill="#146EB4" d="M180.983,246.385c0,11.199-36.866,20.234-82.332,20.234c-45.471,0-82.339-9.035-82.339-20.234 l27.445,122.559c0,7.472,24.563,13.492,54.894,13.492c30.323,0,54.887-6.021,54.887-13.492L180.983,246.385z"/><path fill="#146EB4" d="M180.983,237.998c0-11.194-36.866-20.232-82.332-20.232c-45.471,0-82.339,9.038-82.339,20.232 c0,11.199,36.868,20.234,82.339,20.234C144.116,258.232,180.983,249.197,180.983,237.998z"/></g><g id="folder"><path fill="#FFB900" d="M249.016,404.622l-8.365-8.365c-2.218-2.219-5.228-3.465-8.364-3.465h-54.251 c-3.269,0-5.916,2.647-5.916,5.916v110.417c0,1.09,0.882,1.971,1.972,1.971h161.682c1.09,0,1.973-0.881,1.973-1.971v-98.588 c0-3.268-2.646-5.915-5.915-5.915H249.016z"/><path fill="#FFD75E" d="M249.016,404.622l-8.365,8.366c-2.218,2.219-5.228,3.465-8.364,3.465h-60.167v92.672 c0,1.09,0.882,1.971,1.972,1.971h161.682c1.09,0,1.973-0.881,1.973-1.971v-98.588c0-3.268-2.646-5.915-5.915-5.915H249.016z"/><path fill="#FFD75E" d="M249.016,404.622l-8.365,8.366c-2.218,2.219-5.228,3.465-8.364,3.465h-60.167v92.672 c0,1.09,0.882,1.971,1.972,1.971h161.682c1.09,0,1.973-0.881,1.973-1.971v-98.588c0-3.268-2.646-5.915-5.915-5.915H249.016z"/><path opacity="0.4" fill="#FFFFFF" d="M172.118,416.453v1.973h60.336c3.659,0,7.171-1.455,9.759-4.044 l9.76-9.76h-2.958l-8.365,8.366c-2.218,2.219-5.228,3.465-8.364,3.465H172.118z"/><path fill="#DA7B16" d="M335.772,511.096H174.09c-1.089,0-1.972-0.881-1.972-1.971h165.625 C337.744,510.215,336.862,511.096,335.772,511.096L335.772,511.096z"/></g><path id="moodle" fill="#333333" d="M349.441,39.715L259.377,1.792c-1.188-1.185-3.559-1.185-4.743,0l-79.401,30.812l-15.404,7.11 c-2.372,1.186-3.557,3.557-3.557,5.926c0,2.37,1.186,4.74,3.557,5.926l8.295,3.556v24.886l-10.667,10.666 c-2.369,2.37-2.369,5.926,0,8.296c1.185,1.185,2.372,2.369,4.74,2.369c1.186,0,3.556-1.185,4.741-2.369l2.371-2.37 c1.186,2.37,3.555,3.555,5.924,3.555c2.372,0,4.741-1.185,5.927-3.555l2.37,2.37c2.37,2.369,5.926,2.369,8.296,0 c2.369-2.37,2.369-5.926,0-8.296L181.16,80.008v-18.96l17.775,7.109v49.774c0,2.37,1.186,4.74,3.556,5.925 c20.146,8.297,39.108,11.851,58.069,11.851s36.738-3.554,53.33-11.851c2.369-1.185,3.551-3.555,3.551-5.925V68.157l33.187-15.406 c2.368-1.185,3.555-3.555,3.555-5.925C352.996,43.271,351.813,40.9,349.441,39.715L349.441,39.715z M304.41,72.897v40.293 c-29.628,11.852-60.439,11.852-94.808,0V72.897l45.032,21.332h2.373h2.37L304.41,72.897z M257.007,81.192l-50.96-23.701 l41.478-2.369c3.556,0,5.926-3.556,5.926-7.111c0-3.555-3.556-5.926-7.111-5.926l-67.549,4.741l-2.371-1.186l80.588-31.997 l74.656,31.997L257.007,81.192z"/></svg> 